<mxfile host="app.diagrams.net" modified="2024-05-29T13:26:59.248Z" agent="Mozilla/5.0 (Windows NT 10.0; Win64; x64) AppleWebKit/537.36 (KHTML, like Gecko) Chrome/125.0.0.0 Safari/537.36" etag="amdJfnEkeqI602S6pqpU" version="24.4.9" type="device">
  <diagram name="Страница — 1" id="8BxNWx9zTay0FJWSaABx">
    <mxGraphModel dx="1050" dy="522" grid="1" gridSize="10" guides="1" tooltips="1" connect="1" arrows="1" fold="1" page="1" pageScale="1" pageWidth="827" pageHeight="1169" math="0" shadow="0">
      <root>
        <mxCell id="0" />
        <mxCell id="1" parent="0" />
        <mxCell id="Pup1CCLIfOrQxBfts4lM-1" value="" style="edgeStyle=orthogonalEdgeStyle;rounded=0;orthogonalLoop=1;jettySize=auto;html=1;" edge="1" parent="1" source="Pup1CCLIfOrQxBfts4lM-2" target="Pup1CCLIfOrQxBfts4lM-5">
          <mxGeometry relative="1" as="geometry" />
        </mxCell>
        <mxCell id="Pup1CCLIfOrQxBfts4lM-2" value="Начало" style="strokeWidth=2;html=1;shape=mxgraph.flowchart.terminator;whiteSpace=wrap;fontFamily=Times New Roman;fontSize=18;" vertex="1" parent="1">
          <mxGeometry x="364" y="10" width="100" height="60" as="geometry" />
        </mxCell>
        <mxCell id="Pup1CCLIfOrQxBfts4lM-3" value="Конец" style="strokeWidth=2;html=1;shape=mxgraph.flowchart.terminator;whiteSpace=wrap;fontFamily=Times New Roman;fontSize=18;" vertex="1" parent="1">
          <mxGeometry x="375.5" y="960" width="100" height="60" as="geometry" />
        </mxCell>
        <mxCell id="Pup1CCLIfOrQxBfts4lM-4" value="" style="edgeStyle=orthogonalEdgeStyle;rounded=0;orthogonalLoop=1;jettySize=auto;html=1;" edge="1" parent="1" source="Pup1CCLIfOrQxBfts4lM-5" target="Pup1CCLIfOrQxBfts4lM-10">
          <mxGeometry relative="1" as="geometry" />
        </mxCell>
        <mxCell id="Pup1CCLIfOrQxBfts4lM-5" value="char ApplyOperations(char operation, int a, int b)" style="shape=process;whiteSpace=wrap;html=1;backgroundOutline=1;fontSize=18;fontFamily=Times New Roman;strokeWidth=2;" vertex="1" parent="1">
          <mxGeometry x="184.5" y="130" width="459" height="40" as="geometry" />
        </mxCell>
        <mxCell id="Pup1CCLIfOrQxBfts4lM-6" value="" style="edgeStyle=orthogonalEdgeStyle;rounded=0;orthogonalLoop=1;jettySize=auto;html=1;exitX=0.5;exitY=1;exitDx=0;exitDy=0;entryX=0.5;entryY=0;entryDx=0;entryDy=0;" edge="1" parent="1" source="Pup1CCLIfOrQxBfts4lM-10" target="Pup1CCLIfOrQxBfts4lM-11">
          <mxGeometry relative="1" as="geometry">
            <Array as="points">
              <mxPoint x="414" y="310" />
              <mxPoint x="535" y="310" />
            </Array>
          </mxGeometry>
        </mxCell>
        <mxCell id="Pup1CCLIfOrQxBfts4lM-7" style="edgeStyle=orthogonalEdgeStyle;rounded=0;orthogonalLoop=1;jettySize=auto;html=1;exitX=0.5;exitY=1;exitDx=0;exitDy=0;entryX=0.5;entryY=0;entryDx=0;entryDy=0;" edge="1" parent="1" source="Pup1CCLIfOrQxBfts4lM-10" target="Pup1CCLIfOrQxBfts4lM-14">
          <mxGeometry relative="1" as="geometry">
            <Array as="points">
              <mxPoint x="414" y="430" />
              <mxPoint x="535" y="430" />
            </Array>
          </mxGeometry>
        </mxCell>
        <mxCell id="Pup1CCLIfOrQxBfts4lM-30" value="" style="edgeStyle=orthogonalEdgeStyle;rounded=0;orthogonalLoop=1;jettySize=auto;html=1;entryX=0.5;entryY=0;entryDx=0;entryDy=0;" edge="1" parent="1" source="Pup1CCLIfOrQxBfts4lM-10" target="Pup1CCLIfOrQxBfts4lM-29">
          <mxGeometry relative="1" as="geometry">
            <Array as="points">
              <mxPoint x="414" y="760" />
              <mxPoint x="539" y="760" />
            </Array>
          </mxGeometry>
        </mxCell>
        <mxCell id="Pup1CCLIfOrQxBfts4lM-32" style="edgeStyle=orthogonalEdgeStyle;rounded=0;orthogonalLoop=1;jettySize=auto;html=1;exitX=0.5;exitY=1;exitDx=0;exitDy=0;entryX=0.5;entryY=0;entryDx=0;entryDy=0;" edge="1" parent="1" source="Pup1CCLIfOrQxBfts4lM-10" target="Pup1CCLIfOrQxBfts4lM-17">
          <mxGeometry relative="1" as="geometry">
            <Array as="points">
              <mxPoint x="414" y="560" />
              <mxPoint x="531" y="560" />
            </Array>
          </mxGeometry>
        </mxCell>
        <mxCell id="Pup1CCLIfOrQxBfts4lM-34" value="" style="edgeStyle=orthogonalEdgeStyle;rounded=0;orthogonalLoop=1;jettySize=auto;html=1;exitX=0.5;exitY=1;exitDx=0;exitDy=0;" edge="1" parent="1" source="Pup1CCLIfOrQxBfts4lM-10" target="Pup1CCLIfOrQxBfts4lM-33">
          <mxGeometry relative="1" as="geometry">
            <Array as="points">
              <mxPoint x="414" y="650" />
              <mxPoint x="550" y="650" />
            </Array>
          </mxGeometry>
        </mxCell>
        <mxCell id="Pup1CCLIfOrQxBfts4lM-10" value="operation" style="rhombus;whiteSpace=wrap;html=1;fontSize=18;fontFamily=Times New Roman;strokeWidth=2;" vertex="1" parent="1">
          <mxGeometry x="352.5" y="200" width="123" height="60" as="geometry" />
        </mxCell>
        <mxCell id="Pup1CCLIfOrQxBfts4lM-11" value="return a + b;" style="whiteSpace=wrap;html=1;fontSize=18;fontFamily=Times New Roman;strokeWidth=2;" vertex="1" parent="1">
          <mxGeometry x="480" y="360" width="110" height="40" as="geometry" />
        </mxCell>
        <mxCell id="Pup1CCLIfOrQxBfts4lM-13" value="+" style="text;whiteSpace=wrap;fontFamily=Times New Roman;fontSize=18;" vertex="1" parent="1">
          <mxGeometry x="424" y="280" width="40" height="30" as="geometry" />
        </mxCell>
        <mxCell id="Pup1CCLIfOrQxBfts4lM-46" style="edgeStyle=orthogonalEdgeStyle;rounded=0;orthogonalLoop=1;jettySize=auto;html=1;exitX=1;exitY=0.5;exitDx=0;exitDy=0;" edge="1" parent="1" source="Pup1CCLIfOrQxBfts4lM-14" target="Pup1CCLIfOrQxBfts4lM-3">
          <mxGeometry relative="1" as="geometry">
            <Array as="points">
              <mxPoint x="1100" y="490" />
              <mxPoint x="1100" y="930" />
              <mxPoint x="426" y="930" />
            </Array>
          </mxGeometry>
        </mxCell>
        <mxCell id="Pup1CCLIfOrQxBfts4lM-14" value="return a - b;" style="whiteSpace=wrap;html=1;fontSize=18;fontFamily=Times New Roman;strokeWidth=2;" vertex="1" parent="1">
          <mxGeometry x="480" y="470" width="110" height="40" as="geometry" />
        </mxCell>
        <mxCell id="Pup1CCLIfOrQxBfts4lM-16" value="-" style="text;whiteSpace=wrap;fontFamily=Times New Roman;fontSize=18;" vertex="1" parent="1">
          <mxGeometry x="421" y="400" width="40" height="30" as="geometry" />
        </mxCell>
        <mxCell id="Pup1CCLIfOrQxBfts4lM-17" value="return a * b;" style="whiteSpace=wrap;html=1;fontSize=18;fontFamily=Times New Roman;strokeWidth=2;" vertex="1" parent="1">
          <mxGeometry x="475.5" y="580" width="110" height="40" as="geometry" />
        </mxCell>
        <mxCell id="Pup1CCLIfOrQxBfts4lM-19" value="*" style="text;whiteSpace=wrap;fontFamily=Times New Roman;fontSize=18;" vertex="1" parent="1">
          <mxGeometry x="421" y="520" width="40" height="30" as="geometry" />
        </mxCell>
        <mxCell id="Pup1CCLIfOrQxBfts4lM-20" value="/" style="text;whiteSpace=wrap;fontFamily=Times New Roman;fontSize=18;" vertex="1" parent="1">
          <mxGeometry x="421" y="610" width="40" height="30" as="geometry" />
        </mxCell>
        <mxCell id="Pup1CCLIfOrQxBfts4lM-25" value="return -1;" style="whiteSpace=wrap;html=1;fontSize=18;fontFamily=Times New Roman;strokeWidth=2;" vertex="1" parent="1">
          <mxGeometry x="495.5" y="870" width="86" height="40" as="geometry" />
        </mxCell>
        <mxCell id="Pup1CCLIfOrQxBfts4lM-27" value="default" style="text;whiteSpace=wrap;fontFamily=Times New Roman;fontSize=18;" vertex="1" parent="1">
          <mxGeometry x="424" y="720" width="40" height="30" as="geometry" />
        </mxCell>
        <mxCell id="Pup1CCLIfOrQxBfts4lM-31" value="" style="edgeStyle=orthogonalEdgeStyle;rounded=0;orthogonalLoop=1;jettySize=auto;html=1;" edge="1" parent="1" source="Pup1CCLIfOrQxBfts4lM-29" target="Pup1CCLIfOrQxBfts4lM-25">
          <mxGeometry relative="1" as="geometry" />
        </mxCell>
        <mxCell id="Pup1CCLIfOrQxBfts4lM-29" value="cout &amp;lt;&amp;lt; &quot;Некорректная операция&quot; &amp;lt;&amp;lt; endl" style="shape=parallelogram;perimeter=parallelogramPerimeter;whiteSpace=wrap;html=1;fixedSize=1;fontSize=18;fontFamily=Times New Roman;strokeWidth=2;" vertex="1" parent="1">
          <mxGeometry x="364" y="790" width="349" height="50" as="geometry" />
        </mxCell>
        <mxCell id="Pup1CCLIfOrQxBfts4lM-36" value="" style="edgeStyle=orthogonalEdgeStyle;rounded=0;orthogonalLoop=1;jettySize=auto;html=1;" edge="1" parent="1" source="Pup1CCLIfOrQxBfts4lM-33" target="Pup1CCLIfOrQxBfts4lM-35">
          <mxGeometry relative="1" as="geometry" />
        </mxCell>
        <mxCell id="Pup1CCLIfOrQxBfts4lM-41" style="edgeStyle=orthogonalEdgeStyle;rounded=0;orthogonalLoop=1;jettySize=auto;html=1;exitX=0.5;exitY=1;exitDx=0;exitDy=0;entryX=0.5;entryY=0;entryDx=0;entryDy=0;" edge="1" parent="1" source="Pup1CCLIfOrQxBfts4lM-33" target="Pup1CCLIfOrQxBfts4lM-40">
          <mxGeometry relative="1" as="geometry">
            <Array as="points">
              <mxPoint x="550" y="760" />
              <mxPoint x="725" y="760" />
            </Array>
          </mxGeometry>
        </mxCell>
        <mxCell id="Pup1CCLIfOrQxBfts4lM-33" value="b == 0" style="rhombus;whiteSpace=wrap;html=1;fontSize=18;fontFamily=Times New Roman;strokeWidth=2;" vertex="1" parent="1">
          <mxGeometry x="500" y="680" width="100.5" height="50" as="geometry" />
        </mxCell>
        <mxCell id="Pup1CCLIfOrQxBfts4lM-35" value="throw &quot;\nОшибка. Деление на ноль!&quot;;" style="whiteSpace=wrap;html=1;fontSize=18;fontFamily=Times New Roman;strokeWidth=2;" vertex="1" parent="1">
          <mxGeometry x="750" y="792.5" width="329.25" height="45" as="geometry" />
        </mxCell>
        <mxCell id="Pup1CCLIfOrQxBfts4lM-37" value="+" style="text;whiteSpace=wrap;fontFamily=Times New Roman;fontSize=18;" vertex="1" parent="1">
          <mxGeometry x="603.5" y="670" width="40" height="30" as="geometry" />
        </mxCell>
        <mxCell id="Pup1CCLIfOrQxBfts4lM-38" value="-" style="text;whiteSpace=wrap;fontFamily=Times New Roman;fontSize=18;" vertex="1" parent="1">
          <mxGeometry x="563.5" y="710" width="40" height="30" as="geometry" />
        </mxCell>
        <mxCell id="Pup1CCLIfOrQxBfts4lM-40" value="return a / b;" style="whiteSpace=wrap;html=1;fontSize=18;fontFamily=Times New Roman;strokeWidth=2;" vertex="1" parent="1">
          <mxGeometry x="670" y="880" width="110" height="30" as="geometry" />
        </mxCell>
        <mxCell id="Pup1CCLIfOrQxBfts4lM-42" style="edgeStyle=orthogonalEdgeStyle;rounded=0;orthogonalLoop=1;jettySize=auto;html=1;entryX=0.5;entryY=0;entryDx=0;entryDy=0;entryPerimeter=0;" edge="1" parent="1" source="Pup1CCLIfOrQxBfts4lM-25" target="Pup1CCLIfOrQxBfts4lM-3">
          <mxGeometry relative="1" as="geometry">
            <Array as="points">
              <mxPoint x="539" y="930" />
              <mxPoint x="426" y="930" />
            </Array>
          </mxGeometry>
        </mxCell>
        <mxCell id="Pup1CCLIfOrQxBfts4lM-43" style="edgeStyle=orthogonalEdgeStyle;rounded=0;orthogonalLoop=1;jettySize=auto;html=1;entryX=0.5;entryY=0;entryDx=0;entryDy=0;entryPerimeter=0;" edge="1" parent="1" source="Pup1CCLIfOrQxBfts4lM-40" target="Pup1CCLIfOrQxBfts4lM-3">
          <mxGeometry relative="1" as="geometry">
            <Array as="points">
              <mxPoint x="725" y="930" />
              <mxPoint x="426" y="930" />
            </Array>
          </mxGeometry>
        </mxCell>
        <mxCell id="Pup1CCLIfOrQxBfts4lM-44" style="edgeStyle=orthogonalEdgeStyle;rounded=0;orthogonalLoop=1;jettySize=auto;html=1;entryX=0.5;entryY=0;entryDx=0;entryDy=0;entryPerimeter=0;" edge="1" parent="1" source="Pup1CCLIfOrQxBfts4lM-35" target="Pup1CCLIfOrQxBfts4lM-3">
          <mxGeometry relative="1" as="geometry">
            <Array as="points">
              <mxPoint x="915" y="930" />
              <mxPoint x="426" y="930" />
            </Array>
          </mxGeometry>
        </mxCell>
        <mxCell id="Pup1CCLIfOrQxBfts4lM-45" style="edgeStyle=orthogonalEdgeStyle;rounded=0;orthogonalLoop=1;jettySize=auto;html=1;entryX=0.5;entryY=0;entryDx=0;entryDy=0;entryPerimeter=0;exitX=1;exitY=0.5;exitDx=0;exitDy=0;" edge="1" parent="1" source="Pup1CCLIfOrQxBfts4lM-17" target="Pup1CCLIfOrQxBfts4lM-3">
          <mxGeometry relative="1" as="geometry">
            <Array as="points">
              <mxPoint x="1100" y="600" />
              <mxPoint x="1100" y="930" />
              <mxPoint x="426" y="930" />
            </Array>
          </mxGeometry>
        </mxCell>
        <mxCell id="Pup1CCLIfOrQxBfts4lM-47" style="edgeStyle=orthogonalEdgeStyle;rounded=0;orthogonalLoop=1;jettySize=auto;html=1;entryX=0.5;entryY=0;entryDx=0;entryDy=0;entryPerimeter=0;exitX=1;exitY=0.5;exitDx=0;exitDy=0;" edge="1" parent="1" source="Pup1CCLIfOrQxBfts4lM-11" target="Pup1CCLIfOrQxBfts4lM-3">
          <mxGeometry relative="1" as="geometry">
            <Array as="points">
              <mxPoint x="1100" y="380" />
              <mxPoint x="1100" y="930" />
              <mxPoint x="426" y="930" />
            </Array>
          </mxGeometry>
        </mxCell>
      </root>
    </mxGraphModel>
  </diagram>
</mxfile>
